<?xml version="1.0" encoding="utf-8"?>
<!-- Generator: Adobe Illustrator 19.0.0, SVG Export Plug-In . SVG Version: 6.00 Build 0)  -->
<svg version="1.1" id="Layer_1" xmlns="http://www.w3.org/2000/svg" xmlns:xlink="http://www.w3.org/1999/xlink" x="0px" y="0px"
	 width="30px" height="30px" viewBox="0 0 30 30" style="enable-background:new 0 0 30 30;" xml:space="preserve">
<style type="text/css">
	.st0{fill:#FFFFFF;}
	.st1{fill:#FCE1BB;stroke:#FCE1BB;stroke-width:9.380000e-002;}
	.st2{fill:#F49D1D;stroke:#F49D1D;stroke-width:9.380000e-002;}
</style>
<circle class="st0" cx="15" cy="15" r="9.5"/>
<g>
	<path class="st1" d="M13.9,0h2.3c2.2,0.2,4.4,0.8,6.3,1.9c2.8,1.6,5,4,6.3,7c0.7,1.5,1.1,3.1,1.2,4.8v2.6c-0.2,2.3-0.9,4.5-2.1,6.4
		c-1.1,1.9-2.7,3.6-4.6,4.8c-2.2,1.5-4.8,2.3-7.4,2.5h-1.7c-2.6-0.2-5.2-1-7.4-2.4c-2.6-1.7-4.7-4.3-5.8-7.2c-0.6-1.5-0.9-3.1-1-4.7
		v-1.3c0.1-1.6,0.4-3.3,1-4.8c1.1-2.8,3-5.2,5.4-6.9C8.6,1.1,11.2,0.2,13.9,0 M14.2,5.4C11.6,5.6,9,7,7.4,9.1c-1.3,1.7-2,3.8-2,5.9
		c0,1.8,0.5,3.5,1.4,5c1.1,1.8,2.7,3.2,4.6,3.9c1.6,0.7,3.5,0.9,5.2,0.6c1.6-0.3,3.1-0.9,4.3-1.9c1.9-1.5,3.3-3.8,3.6-6.2
		c0.3-1.9,0-3.9-0.9-5.6c-0.9-1.9-2.6-3.5-4.5-4.5C17.6,5.6,15.9,5.3,14.2,5.4z"/>
	<path class="st2" d="M14.2,5.4c1.7-0.1,3.4,0.2,5,0.9c1.9,0.9,3.6,2.5,4.5,4.5c0.9,1.7,1.1,3.7,0.9,5.6c-0.3,2.4-1.7,4.7-3.6,6.2
		c-1.3,1-2.8,1.7-4.3,1.9c-1.8,0.3-3.6,0.1-5.2-0.6c-1.9-0.8-3.5-2.2-4.6-3.9c-0.9-1.5-1.4-3.3-1.4-5c0-2.1,0.7-4.2,2-5.9
		C9,7,11.6,5.6,14.2,5.4 M14,7.4c-1.5,0.2-3,0.9-4.1,2c-1.1,1-1.9,2.4-2.3,3.9c-0.3,1.5-0.2,3.1,0.4,4.6c0.7,1.8,2.2,3.3,4,4.1
		c1.3,0.6,2.8,0.8,4.3,0.6c1.6-0.2,3.1-1,4.2-2.2c1.1-1.1,1.9-2.6,2.1-4.2c0.2-1.4,0-2.8-0.5-4.1c-0.7-1.6-1.9-2.9-3.3-3.7
		C17.3,7.5,15.6,7.2,14,7.4z"/>
	<path id="XMLID_24_" class="st2" d="M15,10.5c0.1,0,0.2,0,0.3,0c1.3,0.6,2.6,1.1,3.9,1.7c0.2,0.1,0.2,0.5,0,0.5
		c-1.2,0.5-2.4,1.1-3.6,1.6c-0.1,0.1-0.2,0.1-0.4,0.1c-0.1,0-0.2-0.1-0.2-0.1c-1.3-0.6-2.5-1.1-3.8-1.7c-0.2-0.1-0.2-0.4,0-0.5
		C12.4,11.7,13.7,11.1,15,10.5z"/>
	<path id="XMLID_23_" class="st2" d="M10.8,13.3c0.1,0,0.2,0,0.3,0c1.2,0.5,2.4,1,3.6,1.6c0.1,0,0.2,0.1,0.2,0.2c0,1.3,0,2.6,0,3.9
		c0,0.1,0,0.3-0.1,0.4c-0.1,0.1-0.3,0.1-0.4,0.1c-1.2-0.5-2.5-1-3.7-1.6c-0.1,0-0.2-0.2-0.2-0.3c0-1.3,0-2.7,0-4
		C10.6,13.4,10.7,13.3,10.8,13.3z"/>
	<path id="XMLID_20_" class="st2" d="M19.1,13.3c0.2-0.1,0.5,0,0.5,0.2c0,1.4,0,2.7,0,4.1c0,0.1-0.1,0.2-0.2,0.3
		c-1.2,0.5-2.4,1.1-3.6,1.6c-0.2,0.1-0.4-0.1-0.4-0.3c0-1.4,0-2.7,0-4.1c0-0.1,0.1-0.2,0.2-0.2C16.7,14.3,17.9,13.8,19.1,13.3z"/>
</g>
</svg>
