<?xml version="1.0" encoding="utf-8"?>
<!-- Generator: Adobe Illustrator 19.0.0, SVG Export Plug-In . SVG Version: 6.00 Build 0)  -->
<svg version="1.1" id="Layer_1" xmlns="http://www.w3.org/2000/svg" xmlns:xlink="http://www.w3.org/1999/xlink" x="0px" y="0px"
	 width="30px" height="30px" viewBox="0 0 30 30" style="enable-background:new 0 0 30 30;" xml:space="preserve">
<style type="text/css">
	.st0{fill:#FFFFFF;}
	.st1{fill:#C1C1C1;}
	.st2{fill:#787879;}
</style>
<circle class="st0" cx="15" cy="15" r="9.5"/>
<path class="st1" d="M15,0C6.7,0,0,6.7,0,15s6.7,15,15,15s15-6.7,15-15S23.3,0,15,0z M15,24.6c-5.3,0-9.6-4.3-9.6-9.6
	S9.7,5.4,15,5.4s9.6,4.3,9.6,9.6S20.3,24.6,15,24.6z"/>
<g id="XMLID_25_">
	<path id="XMLID_37_" class="st2" d="M18.2,12c-0.2,0-0.4,0.1-0.5,0.2l-4,4l-1.5-1.5c-0.1-0.1-0.3-0.2-0.5-0.2s-0.4,0.1-0.5,0.2
		c-0.3,0.3-0.3,0.7,0,1l2,2c0.1,0.1,0.3,0.2,0.5,0.2s0.4-0.1,0.5-0.2l4.5-4.5c0.3-0.3,0.3-0.7,0-1C18.6,12.1,18.4,12,18.2,12
		L18.2,12z"/>
</g>
<g>
	<g id="XMLID_77_">
		<path id="XMLID_78_" class="st2" d="M15,5.4c-5.3,0-9.6,4.3-9.6,9.6s4.3,9.6,9.6,9.6s9.6-4.3,9.6-9.6S20.3,5.4,15,5.4z M15,22.6
			c-4.2,0-7.6-3.4-7.6-7.6s3.4-7.6,7.6-7.6s7.6,3.4,7.6,7.6S19.2,22.6,15,22.6z"/>
	</g>
</g>
</svg>
