<?xml version="1.0" encoding="utf-8"?>
<!-- Generator: Adobe Illustrator 19.0.0, SVG Export Plug-In . SVG Version: 6.00 Build 0)  -->
<svg version="1.1" id="Layer_1" xmlns="http://www.w3.org/2000/svg" xmlns:xlink="http://www.w3.org/1999/xlink" x="0px" y="0px"
	 width="30px" height="30px" viewBox="0 0 30 30" enable-background="new 0 0 30 30" xml:space="preserve">
<circle fill="#FFFFFF" cx="15" cy="15" r="9"/>
<g>
	<path fill="#FFF3A6" d="M13.9,0h2.2c2.2,0.2,4.4,0.8,6.3,1.9c2.7,1.5,4.8,3.9,6.1,6.6c0.7,1.6,1.2,3.3,1.4,5v2.9
		c-0.2,2.3-1,4.6-2.2,6.5c-1.2,1.9-2.8,3.5-4.6,4.7C21,29,18.5,29.9,15.9,30h-1.7c-2.4-0.1-4.8-0.9-6.9-2.2
		c-3.2-1.9-5.7-5.2-6.7-8.8c-0.3-1.2-0.5-2.4-0.6-3.6v-0.8c0.1-1.9,0.4-3.8,1.2-5.5c1.1-2.6,2.9-4.9,5.2-6.5
		C8.6,1.1,11.2,0.2,13.9,0 M14,5.4c-1.1,0.1-2.2,0.4-3.2,0.9c-1.7,0.8-3.1,2.2-4.1,3.8c-1,1.6-1.4,3.6-1.3,5.5
		c0.1,2,0.9,3.9,2.1,5.4c1.1,1.4,2.6,2.5,4.3,3c1.7,0.6,3.7,0.7,5.5,0.3c2.5-0.6,4.7-2.3,6-4.5c0.9-1.4,1.3-3.1,1.3-4.8
		c0-1.6-0.4-3.1-1.1-4.5c-0.9-1.8-2.5-3.3-4.3-4.2C17.6,5.6,15.8,5.2,14,5.4z"/>
	<path fill="#FFDE00" d="M14,5.4c1.8-0.2,3.6,0.1,5.2,0.9c1.8,0.9,3.4,2.4,4.3,4.2c0.7,1.4,1.1,2.9,1.1,4.5c0,1.7-0.5,3.4-1.3,4.8
		c-1.3,2.2-3.5,3.9-6,4.5c-1.8,0.4-3.7,0.4-5.5-0.3c-1.7-0.6-3.2-1.7-4.3-3c-1.2-1.5-2-3.4-2.1-5.4c-0.1-1.9,0.3-3.8,1.3-5.5
		c0.9-1.6,2.4-3,4.1-3.8C11.8,5.9,12.9,5.5,14,5.4 M14,7.4c-1.9,0.3-3.6,1.2-4.8,2.7c-1,1.2-1.7,2.8-1.8,4.4
		c-0.1,1.6,0.3,3.3,1.3,4.7c0.9,1.4,2.3,2.4,3.8,3c1.2,0.4,2.5,0.5,3.8,0.3c1.6-0.3,3.1-1,4.2-2.2c1.2-1.2,2-2.8,2.2-4.5
		c0.2-1.3,0-2.7-0.6-4c-0.7-1.6-2-2.9-3.5-3.7C17.1,7.5,15.5,7.2,14,7.4z"/>
	<path fill="#FFDE00" d="M14.9,10.3c0.6-0.1,1.3,0.2,1.5,0.8c0.1,0.3,0.1,0.6,0.1,0.9c0,1.1,0,2.1,0,3.2c0,0.4-0.2,0.8-0.6,1.1
		c-0.3,0.2-0.8,0.3-1.2,0.1c-0.4-0.1-0.8-0.5-0.9-1c-0.1-0.3,0-0.5,0-0.8c0-1,0-2,0-3C13.8,11,14.3,10.5,14.9,10.3z"/>
	<path fill="#FFDE00" d="M14.8,17.4c0.4-0.1,0.8,0,1.1,0.2c0.5,0.3,0.7,0.9,0.5,1.5c-0.2,0.5-0.7,1-1.3,0.9c-0.6,0-1.2-0.5-1.3-1.1
		C13.7,18.3,14.2,17.6,14.8,17.4z"/>
</g>
</svg>
