<?xml version="1.0" encoding="utf-8"?>
<!-- Generator: Adobe Illustrator 19.0.0, SVG Export Plug-In . SVG Version: 6.00 Build 0)  -->
<svg version="1.1" id="Layer_1" xmlns="http://www.w3.org/2000/svg" xmlns:xlink="http://www.w3.org/1999/xlink" x="0px" y="0px"
	 width="30px" height="30px" viewBox="0 0 30 30" enable-background="new 0 0 30 30" xml:space="preserve">
<circle fill="#FFFFFF" cx="15" cy="15" r="9.5"/>
<path fill="#C1C1C1" d="M13.9,0h2.3c2.2,0.2,4.4,0.8,6.3,1.9c2.9,1.7,5.2,4.3,6.5,7.5c0.6,1.4,0.9,2.8,1,4.3v2.5
	c-0.2,2.3-0.9,4.5-2.1,6.5c-1.2,2.1-3,3.8-5,5.1c-2.1,1.3-4.5,2.1-7,2.2h-1.7c-2.6-0.2-5.3-1-7.5-2.5c-2.6-1.7-4.6-4.3-5.7-7.2
	c-0.6-1.5-0.9-3.1-1-4.7v-1.3c0.1-1.9,0.5-3.9,1.3-5.6C2.5,6.2,4.4,4,6.8,2.4C8.9,1,11.4,0.2,13.9,0 M13.9,5.4
	c-2.2,0.2-4.3,1.3-5.8,2.9c-1.1,1.2-2,2.6-2.4,4.2c-0.5,2-0.4,4.1,0.3,6c0.6,1.7,1.7,3.1,3.1,4.2s3.1,1.7,4.8,1.9
	c1.7,0.2,3.4-0.1,5-0.8c2.1-0.9,3.8-2.7,4.8-4.8c0.7-1.5,0.9-3.1,0.8-4.7c-0.1-1.8-0.8-3.6-1.9-5.1c-1-1.4-2.5-2.5-4.1-3.1
	C17.1,5.5,15.5,5.3,13.9,5.4z"/>
<path fill="#787879" d="M13.8,5.3c1.6-0.2,3.3,0,4.8,0.6c1.6,0.6,3.1,1.7,4.2,3.2c1.1,1.5,1.8,3.4,1.9,5.2c0.1,1.6-0.2,3.3-0.8,4.8
	c-0.9,2.1-2.7,3.9-4.9,4.9c-1.6,0.7-3.4,1-5.1,0.8c-1.7-0.2-3.5-0.9-4.9-1.9c-1.4-1.1-2.5-2.5-3.2-4.3c-0.7-1.9-0.8-4.1-0.3-6.1
	C6,10.8,6.8,9.4,8,8.2C9.4,6.6,11.6,5.6,13.8,5.3 M13.9,7.4C11.7,7.7,9.6,9,8.4,10.9c-0.8,1.3-1.3,2.9-1.2,4.5
	c0,1.5,0.6,3.1,1.4,4.3c0.9,1.3,2.3,2.3,4,2.9c1.5,0.5,3.4,0.5,4.9-0.1c1.4-0.5,2.6-1.3,3.6-2.5c0.8-1,1.4-2.3,1.6-3.8
	c0.2-1.4,0-2.9-0.5-4.2c-0.7-1.6-1.9-3-3.5-3.8C17.3,7.5,15.5,7.1,13.9,7.4z"/>
<g id="XMLID_20_">
	<path id="XMLID_27_" fill="#787879" d="M10.5,11.3c0.6,0,1.2,0,1.8,0c0,1.8,0,3.6,0,5.3c0,0.3,0.2,0.5,0.5,0.5c2.1,0,4.2,0,6.3,0
		c0,0.3,0,0.6,0,0.9c-2,0-4,0-6,0c-0.3,0-0.5,0-0.7-0.1c-0.5-0.2-0.9-0.7-0.9-1.3c0-1.5,0-3,0-4.5c-0.3,0-0.6,0-0.9,0
		C10.5,11.9,10.6,11.6,10.5,11.3z"/>
	<path id="XMLID_36_" fill="#787879" d="M13.8,12.3c0.2-0.1,0.4-0.1,0.7-0.1c1.1,0,2.1,0,3.1,0c0.3,0,0.6,0.1,0.8,0.3
		c0.2,0.2,0.2,0.5,0.2,0.7c0,0.6,0,1.2,0,1.9c0,0.2,0,0.4-0.1,0.6c-0.1,0.3-0.4,0.5-0.7,0.5c-1.2,0-2.5,0-3.7,0
		c-0.4,0-0.9-0.4-0.9-0.9c0-0.8,0-1.6,0-2.3C13.2,12.7,13.5,12.4,13.8,12.3 M15,13.1c0,0.3,0,0.6,0,0.9c0.6,0,1.2,0,1.8,0
		c0-0.3,0-0.6,0-0.9C16.2,13.1,15.6,13.1,15,13.1z"/>
	<path id="XMLID_24_" fill="#787879" d="M13.1,18.5c0.4-0.1,0.9,0.2,1,0.6c0.2,0.4,0,0.9-0.4,1.1s-0.9,0.1-1.2-0.2
		C12.1,19.5,12.4,18.6,13.1,18.5z"/>
	<path id="XMLID_23_" fill="#787879" d="M17.5,18.5c0.5-0.1,1,0.2,1.1,0.6c0.1,0.3,0,0.8-0.3,1c-0.4,0.3-0.9,0.2-1.2-0.1
		C16.6,19.6,16.9,18.7,17.5,18.5z"/>
</g>
</svg>
