<?xml version="1.0" encoding="utf-8"?>
<!-- Generator: Adobe Illustrator 19.0.0, SVG Export Plug-In . SVG Version: 6.00 Build 0)  -->
<svg version="1.1" id="Layer_1" xmlns="http://www.w3.org/2000/svg" xmlns:xlink="http://www.w3.org/1999/xlink" x="0px" y="0px"
	 width="30px" height="30px" viewBox="0 0 30 30" style="enable-background:new 0 0 30 30;" xml:space="preserve">
<style type="text/css">
	.st0{fill:#FFFFFF;}
	.st1{fill:#C2CFE3;stroke:#C2CFE3;stroke-width:9.380000e-002;}
	.st2{fill:#35609A;stroke:#35609A;stroke-width:9.380000e-002;}
	.st3{fill:#FFFFFF;stroke:#FFFFFF;stroke-width:9.380000e-002;}
</style>
<circle class="st0" cx="15" cy="15" r="9.5"/>
<g>
	<path class="st1" d="M13.9,0h2.3c2.2,0.2,4.4,0.8,6.3,1.9c2.9,1.7,5.2,4.3,6.5,7.5c0.6,1.4,0.9,2.8,1,4.3v2.5
		c-0.2,2.3-0.9,4.5-2.1,6.5c-1.2,2.1-3,3.8-5,5.1c-2.1,1.3-4.5,2.1-7,2.2h-1.7c-2.6-0.2-5.3-1-7.5-2.5c-2.6-1.7-4.6-4.3-5.7-7.2
		c-0.6-1.5-0.9-3.1-1-4.7v-1.3c0.1-1.9,0.5-3.9,1.3-5.6C2.5,6.2,4.4,4,6.8,2.4C8.9,1,11.4,0.2,13.9,0 M13.9,5.4
		c-2.2,0.2-4.3,1.3-5.8,2.9c-1.1,1.2-2,2.6-2.4,4.2c-0.5,2-0.4,4.1,0.3,6c0.6,1.7,1.7,3.1,3.1,4.2c1.4,1.1,3.1,1.7,4.8,1.9
		c1.7,0.2,3.4-0.1,5-0.8c2.1-0.9,3.8-2.7,4.8-4.8c0.7-1.5,0.9-3.1,0.8-4.7c-0.1-1.8-0.8-3.6-1.9-5.1c-1-1.4-2.5-2.5-4.1-3.1
		C17.1,5.5,15.5,5.3,13.9,5.4z"/>
	<path class="st2" d="M13.9,5.4c1.6-0.2,3.2,0,4.7,0.6c1.6,0.6,3,1.7,4.1,3.1c1.1,1.5,1.8,3.3,1.9,5.1c0.1,1.6-0.2,3.2-0.8,4.7
		c-0.9,2.1-2.7,3.8-4.8,4.8c-1.6,0.7-3.3,1-5,0.8c-1.7-0.2-3.4-0.9-4.8-1.9c-1.4-1.1-2.5-2.5-3.1-4.2c-0.7-1.9-0.8-4-0.3-6
		c0.4-1.6,1.2-3,2.4-4.2C9.6,6.7,11.7,5.7,13.9,5.4 M14,7.4C11.8,7.7,9.8,9,8.6,10.9c-0.8,1.3-1.3,2.8-1.2,4.4c0,1.5,0.6,3,1.4,4.2
		c0.9,1.3,2.3,2.3,3.9,2.8c1.5,0.5,3.3,0.5,4.8-0.1c1.4-0.5,2.6-1.3,3.5-2.5c0.8-1,1.4-2.3,1.6-3.7c0.2-1.4,0-2.8-0.5-4.1
		c-0.7-1.6-1.9-2.9-3.4-3.7C17.3,7.5,15.6,7.2,14,7.4z"/>
	<path class="st2" d="M11.5,10.1c0-0.2,0.1-0.3,0.3-0.3c1.7,0,3.4,0,5.1,0c0,0.5,0,0.9,0,1.4c0,0.4,0.4,0.8,0.8,0.8
		c0.5,0,0.9,0,1.4,0c0,2.6,0,5.3,0,7.9c0,0.2-0.1,0.3-0.3,0.3c-2.3,0-4.6,0-6.9,0c-0.2,0-0.3-0.1-0.3-0.3
		C11.5,16.6,11.5,13.4,11.5,10.1 M14.8,17.4c-0.3,0.1-0.2,0.5,0.1,0.5c1,0,2,0,3,0c0.1,0,0.3,0,0.4-0.2c0.1-0.2-0.1-0.4-0.2-0.4
		c-1,0-2,0-3,0C15,17.3,14.9,17.3,14.8,17.4 M15.6,18.4c-0.2,0.1-0.1,0.5,0.1,0.5c0.8,0,1.5,0,2.3,0c0.1,0,0.3-0.1,0.3-0.2
		c0-0.2-0.1-0.3-0.3-0.3C17.3,18.4,16.5,18.4,15.6,18.4C15.7,18.4,15.6,18.4,15.6,18.4z"/>
	<path id="XMLID_24_" class="st2" d="M17.3,10.2c0.4,0.4,0.9,0.9,1.3,1.3c-0.3,0-0.6,0-1,0c-0.2,0-0.4-0.2-0.4-0.4
		C17.3,10.8,17.3,10.5,17.3,10.2z"/>
	<path id="XMLID_23_" class="st3" d="M14.8,17.4c0.1,0,0.2,0,0.3,0c1,0,2,0,3,0c0.2,0,0.3,0.2,0.2,0.4c0,0.2-0.2,0.2-0.4,0.2
		c-1,0-2,0-3,0C14.6,17.9,14.5,17.5,14.8,17.4z"/>
	<path id="XMLID_20_" class="st3" d="M15.6,18.4c0,0,0.1,0,0.1,0c0.8,0,1.6,0,2.3,0c0.2,0,0.3,0.2,0.3,0.3c0,0.1-0.2,0.2-0.3,0.2
		c-0.8,0-1.5,0-2.3,0C15.5,18.9,15.4,18.5,15.6,18.4z"/>
</g>
</svg>
