<?xml version="1.0" encoding="utf-8"?>
<!-- Generator: Adobe Illustrator 19.0.0, SVG Export Plug-In . SVG Version: 6.00 Build 0)  -->
<svg version="1.1" id="Layer_1" xmlns="http://www.w3.org/2000/svg" xmlns:xlink="http://www.w3.org/1999/xlink" x="0px" y="0px"
	 width="30px" height="30px" viewBox="0 0 30 30" enable-background="new 0 0 30 30" xml:space="preserve">
<circle fill="#FFFFFF" cx="15" cy="15" r="9"/>
<g>
	<path fill="#E4C6C9" d="M13.9,0h2.3c2.2,0.2,4.4,0.8,6.3,1.9c2.7,1.6,5,4,6.3,6.9c0.7,1.5,1.1,3.2,1.3,4.8v2.5
		c-0.2,2.2-0.9,4.4-2,6.3c-1.1,1.9-2.6,3.5-4.4,4.8c-2.3,1.6-5,2.5-7.7,2.7h-1.7c-2.6-0.2-5.3-1-7.4-2.5c-2.6-1.7-4.6-4.2-5.7-7.1
		c-0.6-1.5-0.9-3.1-1-4.8v-1.3c0.1-1.7,0.4-3.3,1-4.8c1.1-2.7,3-5.1,5.4-6.8C8.6,1.1,11.2,0.2,13.9,0 M13.9,5.4
		c-1,0.1-2,0.4-2.9,0.8c-1.9,0.9-3.5,2.4-4.5,4.3c-0.8,1.6-1.2,3.4-1.1,5.2c0.1,1.8,0.8,3.5,1.8,5c1.1,1.6,2.8,2.8,4.6,3.4
		c1.7,0.6,3.5,0.7,5.3,0.3c1.4-0.3,2.7-1,3.8-1.8c2-1.6,3.3-3.9,3.6-6.5c0.2-1.8-0.1-3.7-0.9-5.3c-0.9-1.9-2.5-3.5-4.5-4.5
		C17.6,5.5,15.7,5.2,13.9,5.4z"/>
	<path fill="#A8414A" stroke="#A8414A" stroke-width="9.375000e-002" d="M13.9,5.4c1.8-0.2,3.6,0.1,5.3,0.9c1.9,0.9,3.6,2.5,4.5,4.5
		c0.8,1.6,1.1,3.5,0.9,5.3C24.3,18.6,23,21,21,22.5c-1.1,0.9-2.4,1.5-3.8,1.8c-1.7,0.4-3.6,0.3-5.3-0.3c-1.8-0.6-3.5-1.8-4.6-3.4
		c-1.1-1.4-1.7-3.2-1.8-5c-0.1-1.8,0.2-3.6,1.1-5.2c1-1.9,2.6-3.4,4.5-4.3C11.9,5.8,12.9,5.5,13.9,5.4 M14,7.4
		c-1.3,0.2-2.5,0.7-3.6,1.5C9,9.9,8,11.4,7.6,13.1c-0.4,1.5-0.3,3.2,0.3,4.7c0.6,1.6,1.8,3,3.3,3.8c1.4,0.8,3,1.1,4.6,1
		c1.7-0.2,3.4-1,4.6-2.2c1.1-1.1,1.9-2.6,2.2-4.2c0.2-1.4,0-2.9-0.5-4.2c-0.7-1.6-1.9-2.9-3.3-3.7C17.3,7.5,15.6,7.2,14,7.4z"/>
	<path fill="#A8414A" stroke="#A8414A" stroke-width="9.375000e-002" d="M12.7,10.7c0.6-0.6,1.5-0.8,2.3-0.8c0.8,0,1.7,0.4,2.3,1
		c0.7,0.6,1.1,1.6,1,2.5c0,0.3,0,0.6,0,0.8c0.3-0.2,0.5-0.3,0.8-0.5c0.1-0.1,0.2,0.1,0.1,0.2c-0.5,1.1-1.1,2.2-1.6,3.3
		c0,0.1-0.2,0.1-0.2,0c-0.6-1.1-1.1-2.2-1.6-3.3c-0.1-0.1,0-0.1,0.1-0.2c0.3,0.2,0.5,0.3,0.8,0.5c0-0.5,0.1-1.1-0.1-1.5
		c-0.3-0.6-0.9-1.1-1.6-1c-0.8,0-1.5,0.8-1.6,1.6c0,2.3,0,4.6,0,6.9c-0.6,0-1.2,0-1.7,0c0-2.3,0-4.7,0-7
		C11.6,12.2,12,11.3,12.7,10.7z"/>
</g>
</svg>
