<?xml version="1.0" encoding="utf-8"?>
<!-- Generator: Adobe Illustrator 19.0.0, SVG Export Plug-In . SVG Version: 6.00 Build 0)  -->
<svg version="1.1" id="Layer_1" xmlns="http://www.w3.org/2000/svg" xmlns:xlink="http://www.w3.org/1999/xlink" x="0px" y="0px"
	 width="30px" height="30px" viewBox="0 0 30 30" enable-background="new 0 0 30 30" xml:space="preserve">
<circle fill="#FFFFFF" cx="14.8" cy="14.4" r="9"/>
<g>
	<path fill="#BCDEB1" d="M15,0C6.7,0,0,6.7,0,15s6.7,15,15,15s15-6.7,15-15S23.3,0,15,0z M15,24.6c-5.3,0-9.6-4.3-9.6-9.6
		S9.7,5.4,15,5.4s9.6,4.3,9.6,9.6S20.3,24.6,15,24.6z"/>
	<g>
		<g>
			<path fill="#0F8042" d="M15,5.4c-5.3,0-9.6,4.3-9.6,9.6s4.3,9.6,9.6,9.6s9.6-4.3,9.6-9.6S20.3,5.4,15,5.4z M15,22.6
				c-4.2,0-7.6-3.4-7.6-7.6s3.4-7.6,7.6-7.6s7.6,3.4,7.6,7.6S19.2,22.6,15,22.6z"/>
		</g>
	</g>
	<g>
		<g>
			<path fill="#0F8042" d="M18.2,11.4c-0.1,0-0.1,0-0.2,0l-7.4,4.2c-0.1,0-0.1,0.1-0.1,0.2c0,0.1,0.1,0.1,0.1,0.2l2.2,0.7l0.9,2.3
				c0,0.1,0.1,0.1,0.2,0.1c0,0,0,0,0,0c0,0,0.1,0,0.1-0.1l1.3-1.6l1.7,0.6c0,0,0,0,0.1,0c0,0,0.1,0,0.1,0c0,0,0.1-0.1,0.1-0.1
				l1.1-6.4C18.3,11.5,18.3,11.5,18.2,11.4z M14,16.8C14,16.9,14,16.9,14,16.8l-0.2,1.4l-0.6-1.6l3.5-3.4L14,16.8z"/>
		</g>
	</g>
</g>
</svg>
